<mxfile host="65bd71144e">
    <diagram id="VzBYKut0LovUGBFgEy09" name="Page-1">
        <mxGraphModel dx="683" dy="453" grid="1" gridSize="10" guides="1" tooltips="1" connect="1" arrows="1" fold="1" page="1" pageScale="1" pageWidth="1200" pageHeight="1920" math="0" shadow="0">
            <root>
                <mxCell id="0"/>
                <mxCell id="1" parent="0"/>
                <mxCell id="2" value="&lt;font style=&quot;font-size: 18px;&quot;&gt;&lt;b&gt;快速排序（Quick Sort）&lt;/b&gt;&lt;/font&gt;" style="text;html=1;align=center;verticalAlign=middle;whiteSpace=wrap;rounded=0;" vertex="1" parent="1">
                    <mxGeometry x="240" y="440" width="640" height="40" as="geometry"/>
                </mxCell>
                <mxCell id="3" value="&lt;font style=&quot;font-size: 24px; color: rgb(255, 255, 255);&quot;&gt;64&lt;/font&gt;" style="rounded=1;whiteSpace=wrap;html=1;resizeHeight=0;strokeOpacity=100;fillOpacity=100;strokeColor=none;gradientColor=none;fillColor=#97D077;" vertex="1" parent="1">
                    <mxGeometry x="360" y="600" width="40" height="40" as="geometry"/>
                </mxCell>
                <mxCell id="4" value="&lt;font style=&quot;font-size: 24px; color: rgb(255, 255, 255);&quot;&gt;34&lt;/font&gt;" style="rounded=1;whiteSpace=wrap;html=1;resizeHeight=0;strokeOpacity=100;fillOpacity=100;strokeColor=none;gradientColor=none;fillColor=#97D077;" vertex="1" parent="1">
                    <mxGeometry x="400" y="600" width="40" height="40" as="geometry"/>
                </mxCell>
                <mxCell id="5" value="&lt;font style=&quot;font-size: 24px; color: rgb(255, 255, 255);&quot;&gt;25&lt;/font&gt;" style="rounded=1;whiteSpace=wrap;html=1;resizeHeight=0;strokeOpacity=100;fillOpacity=100;strokeColor=none;gradientColor=none;fillColor=#97D077;" vertex="1" parent="1">
                    <mxGeometry x="440" y="600" width="40" height="40" as="geometry"/>
                </mxCell>
                <mxCell id="6" value="&lt;font style=&quot;font-size: 24px; color: rgb(255, 255, 255);&quot;&gt;12&lt;/font&gt;" style="rounded=1;whiteSpace=wrap;html=1;resizeHeight=0;strokeOpacity=100;fillOpacity=100;strokeColor=none;gradientColor=none;fillColor=#97D077;" vertex="1" parent="1">
                    <mxGeometry x="480" y="600" width="40" height="40" as="geometry"/>
                </mxCell>
                <mxCell id="7" value="&lt;font style=&quot;font-size: 24px; color: rgb(255, 255, 255);&quot;&gt;22&lt;/font&gt;" style="rounded=1;whiteSpace=wrap;html=1;resizeHeight=0;strokeOpacity=100;fillOpacity=100;strokeColor=none;gradientColor=none;fillColor=#97D077;" vertex="1" parent="1">
                    <mxGeometry x="520" y="600" width="40" height="40" as="geometry"/>
                </mxCell>
                <mxCell id="8" value="&lt;font style=&quot;font-size: 24px; color: rgb(255, 255, 255);&quot;&gt;11&lt;/font&gt;" style="rounded=1;whiteSpace=wrap;html=1;resizeHeight=0;strokeOpacity=100;fillOpacity=100;strokeColor=none;gradientColor=none;fillColor=#97D077;" vertex="1" parent="1">
                    <mxGeometry x="560" y="600" width="40" height="40" as="geometry"/>
                </mxCell>
                <mxCell id="9" value="&lt;font style=&quot;font-size: 24px; color: rgb(255, 255, 255);&quot;&gt;90&lt;/font&gt;" style="rounded=1;whiteSpace=wrap;html=1;resizeHeight=0;strokeOpacity=100;fillOpacity=100;strokeColor=none;gradientColor=none;fillColor=#97D077;" vertex="1" parent="1">
                    <mxGeometry x="600" y="600" width="40" height="40" as="geometry"/>
                </mxCell>
                <mxCell id="10" value="&lt;b&gt;初始数组&lt;/b&gt;" style="text;html=1;align=left;verticalAlign=middle;whiteSpace=wrap;rounded=0;" vertex="1" parent="1">
                    <mxGeometry x="240" y="600" width="80" height="40" as="geometry"/>
                </mxCell>
                <mxCell id="11" value="&lt;b&gt;数组变量&lt;/b&gt;" style="text;html=1;align=left;verticalAlign=middle;whiteSpace=wrap;rounded=0;" vertex="1" parent="1">
                    <mxGeometry x="240" y="520" width="80" height="40" as="geometry"/>
                </mxCell>
                <mxCell id="12" value="&lt;div style=&quot;background-color: rgb(255, 255, 255); color: rgb(8, 8, 8);&quot;&gt;&lt;pre style=&quot;font-family:&#39;JetBrains Mono&#39;,monospace;font-size:12.0pt;&quot;&gt;&lt;div style=&quot;color: rgb(8, 8, 8);&quot;&gt;&lt;pre style=&quot;font-family:&#39;JetBrains Mono&#39;,monospace;font-size:12.0pt;&quot;&gt;&lt;span style=&quot;color:#0033b3;&quot;&gt;int &lt;/span&gt;&lt;span style=&quot;color:#000000;&quot;&gt;arr&lt;/span&gt;&lt;span style=&quot;color:#3f9101;&quot;&gt;[] &lt;/span&gt;= &lt;span style=&quot;color:#0e4a8e;&quot;&gt;{&lt;/span&gt;&lt;span style=&quot;color:#1750eb;&quot;&gt;64&lt;/span&gt;, &lt;span style=&quot;color:#1750eb;&quot;&gt;34&lt;/span&gt;, &lt;span style=&quot;color:#1750eb;&quot;&gt;25&lt;/span&gt;, &lt;span style=&quot;color:#1750eb;&quot;&gt;12&lt;/span&gt;, &lt;span style=&quot;color:#1750eb;&quot;&gt;22&lt;/span&gt;, &lt;span style=&quot;color:#1750eb;&quot;&gt;11&lt;/span&gt;, &lt;span style=&quot;color:#1750eb;&quot;&gt;90&lt;/span&gt;, &lt;span style=&quot;color:#1750eb;&quot;&gt;66&lt;/span&gt;, &lt;span style=&quot;color:#1750eb;&quot;&gt;39&lt;/span&gt;, &lt;span style=&quot;color:#1750eb;&quot;&gt;48&lt;/span&gt;, &lt;span style=&quot;color:#1750eb;&quot;&gt;56&lt;/span&gt;&lt;span style=&quot;color:#0e4a8e;&quot;&gt;}&lt;/span&gt;;&lt;br&gt;&lt;span style=&quot;color:#0033b3;&quot;&gt;int &lt;/span&gt;&lt;span style=&quot;color:#000000;&quot;&gt;len &lt;/span&gt;= &lt;span style=&quot;color:#0033b3;&quot;&gt;sizeof&lt;/span&gt;&lt;span style=&quot;color:#3f9101;&quot;&gt;(&lt;/span&gt;&lt;span style=&quot;color:#000000;&quot;&gt;arr&lt;/span&gt;&lt;span style=&quot;color:#3f9101;&quot;&gt;) &lt;/span&gt;/ &lt;span style=&quot;color:#0033b3;&quot;&gt;sizeof&lt;/span&gt;&lt;span style=&quot;color:#3f9101;&quot;&gt;(&lt;/span&gt;&lt;span style=&quot;color:#000000;&quot;&gt;arr&lt;/span&gt;&lt;span style=&quot;color:#3f9101;&quot;&gt;[&lt;/span&gt;&lt;span style=&quot;color:#1750eb;&quot;&gt;0&lt;/span&gt;&lt;span style=&quot;color:#3f9101;&quot;&gt;])&lt;/span&gt;;&lt;/pre&gt;&lt;/div&gt;&lt;/pre&gt;&lt;/div&gt;" style="text;html=1;align=left;verticalAlign=middle;resizable=0;points=[];autosize=1;strokeColor=none;fillColor=none;" vertex="1" parent="1">
                    <mxGeometry x="360" y="500" width="520" height="80" as="geometry"/>
                </mxCell>
                <mxCell id="13" value="&lt;font style=&quot;font-size: 24px; color: rgb(255, 255, 255);&quot;&gt;66&lt;/font&gt;" style="rounded=1;whiteSpace=wrap;html=1;resizeHeight=0;strokeOpacity=100;fillOpacity=100;strokeColor=none;gradientColor=none;fillColor=#97D077;" vertex="1" parent="1">
                    <mxGeometry x="640" y="600" width="40" height="40" as="geometry"/>
                </mxCell>
                <mxCell id="14" value="&lt;font style=&quot;font-size: 24px; color: rgb(255, 255, 255);&quot;&gt;39&lt;/font&gt;" style="rounded=1;whiteSpace=wrap;html=1;resizeHeight=0;strokeOpacity=100;fillOpacity=100;strokeColor=none;gradientColor=none;fillColor=#97D077;" vertex="1" parent="1">
                    <mxGeometry x="680" y="600" width="40" height="40" as="geometry"/>
                </mxCell>
                <mxCell id="15" value="&lt;font style=&quot;font-size: 24px; color: rgb(255, 255, 255);&quot;&gt;48&lt;/font&gt;" style="rounded=1;whiteSpace=wrap;html=1;resizeHeight=0;strokeOpacity=100;fillOpacity=100;strokeColor=none;gradientColor=none;fillColor=#97D077;" vertex="1" parent="1">
                    <mxGeometry x="720" y="600" width="40" height="40" as="geometry"/>
                </mxCell>
                <mxCell id="16" value="&lt;font style=&quot;font-size: 24px; color: rgb(255, 255, 255);&quot;&gt;56&lt;/font&gt;" style="rounded=1;whiteSpace=wrap;html=1;resizeHeight=0;strokeOpacity=100;fillOpacity=100;strokeColor=none;gradientColor=none;fillColor=#97D077;" vertex="1" parent="1">
                    <mxGeometry x="760" y="600" width="40" height="40" as="geometry"/>
                </mxCell>
                <mxCell id="17" value="&lt;b&gt;随机选择基准值&lt;/b&gt;&lt;div&gt;&lt;b&gt;（枢轴）pos&lt;/b&gt;&lt;/div&gt;" style="text;html=1;align=left;verticalAlign=middle;whiteSpace=wrap;rounded=0;" vertex="1" parent="1">
                    <mxGeometry x="240" y="720" width="90" height="40" as="geometry"/>
                </mxCell>
                <mxCell id="18" value="&lt;font style=&quot;font-size: 24px; color: rgb(255, 255, 255);&quot;&gt;64&lt;/font&gt;" style="rounded=1;whiteSpace=wrap;html=1;resizeHeight=0;strokeOpacity=100;fillOpacity=100;strokeColor=none;gradientColor=none;fillColor=#97D077;" vertex="1" parent="1">
                    <mxGeometry x="360" y="720" width="40" height="40" as="geometry"/>
                </mxCell>
                <mxCell id="19" value="&lt;font style=&quot;font-size: 24px; color: rgb(255, 255, 255);&quot;&gt;34&lt;/font&gt;" style="rounded=1;whiteSpace=wrap;html=1;resizeHeight=0;strokeOpacity=100;fillOpacity=100;strokeColor=none;gradientColor=none;fillColor=#97D077;" vertex="1" parent="1">
                    <mxGeometry x="400" y="720" width="40" height="40" as="geometry"/>
                </mxCell>
                <mxCell id="20" value="&lt;font style=&quot;font-size: 24px; color: rgb(255, 255, 255);&quot;&gt;25&lt;/font&gt;" style="rounded=1;whiteSpace=wrap;html=1;resizeHeight=0;strokeOpacity=100;fillOpacity=100;strokeColor=none;gradientColor=none;fillColor=#97D077;" vertex="1" parent="1">
                    <mxGeometry x="440" y="720" width="40" height="40" as="geometry"/>
                </mxCell>
                <mxCell id="21" value="&lt;font style=&quot;font-size: 24px; color: rgb(255, 255, 255);&quot;&gt;12&lt;/font&gt;" style="rounded=1;whiteSpace=wrap;html=1;resizeHeight=0;strokeOpacity=100;fillOpacity=100;strokeColor=none;gradientColor=none;fillColor=#97D077;" vertex="1" parent="1">
                    <mxGeometry x="480" y="720" width="40" height="40" as="geometry"/>
                </mxCell>
                <mxCell id="22" value="&lt;font style=&quot;font-size: 24px; color: rgb(255, 255, 255);&quot;&gt;22&lt;/font&gt;" style="rounded=1;whiteSpace=wrap;html=1;resizeHeight=0;strokeOpacity=100;fillOpacity=100;strokeColor=none;gradientColor=none;fillColor=#B266FF;" vertex="1" parent="1">
                    <mxGeometry x="520" y="720" width="40" height="40" as="geometry"/>
                </mxCell>
                <mxCell id="23" value="&lt;font style=&quot;font-size: 24px; color: rgb(255, 255, 255);&quot;&gt;11&lt;/font&gt;" style="rounded=1;whiteSpace=wrap;html=1;resizeHeight=0;strokeOpacity=100;fillOpacity=100;strokeColor=none;gradientColor=none;fillColor=#97D077;" vertex="1" parent="1">
                    <mxGeometry x="560" y="720" width="40" height="40" as="geometry"/>
                </mxCell>
                <mxCell id="24" value="&lt;font style=&quot;font-size: 24px; color: rgb(255, 255, 255);&quot;&gt;90&lt;/font&gt;" style="rounded=1;whiteSpace=wrap;html=1;resizeHeight=0;strokeOpacity=100;fillOpacity=100;strokeColor=none;gradientColor=none;fillColor=#97D077;" vertex="1" parent="1">
                    <mxGeometry x="600" y="720" width="40" height="40" as="geometry"/>
                </mxCell>
                <mxCell id="25" value="&lt;font style=&quot;font-size: 24px; color: rgb(255, 255, 255);&quot;&gt;66&lt;/font&gt;" style="rounded=1;whiteSpace=wrap;html=1;resizeHeight=0;strokeOpacity=100;fillOpacity=100;strokeColor=none;gradientColor=none;fillColor=#97D077;" vertex="1" parent="1">
                    <mxGeometry x="640" y="720" width="40" height="40" as="geometry"/>
                </mxCell>
                <mxCell id="26" value="&lt;font style=&quot;font-size: 24px; color: rgb(255, 255, 255);&quot;&gt;39&lt;/font&gt;" style="rounded=1;whiteSpace=wrap;html=1;resizeHeight=0;strokeOpacity=100;fillOpacity=100;strokeColor=none;gradientColor=none;fillColor=#97D077;" vertex="1" parent="1">
                    <mxGeometry x="680" y="720" width="40" height="40" as="geometry"/>
                </mxCell>
                <mxCell id="27" value="&lt;font style=&quot;font-size: 24px; color: rgb(255, 255, 255);&quot;&gt;48&lt;/font&gt;" style="rounded=1;whiteSpace=wrap;html=1;resizeHeight=0;strokeOpacity=100;fillOpacity=100;strokeColor=none;gradientColor=none;fillColor=#97D077;" vertex="1" parent="1">
                    <mxGeometry x="720" y="720" width="40" height="40" as="geometry"/>
                </mxCell>
                <mxCell id="28" value="&lt;font style=&quot;font-size: 24px; color: rgb(255, 255, 255);&quot;&gt;56&lt;/font&gt;" style="rounded=1;whiteSpace=wrap;html=1;resizeHeight=0;strokeOpacity=100;fillOpacity=100;strokeColor=none;gradientColor=none;fillColor=#97D077;" vertex="1" parent="1">
                    <mxGeometry x="760" y="720" width="40" height="40" as="geometry"/>
                </mxCell>
                <mxCell id="29" value="随机选中一个索引值，比如这里是 4，即对应值 22.&lt;div&gt;pos = 22，以 pos 为准，将数组分为左右两个部分。&lt;/div&gt;" style="text;html=1;align=left;verticalAlign=middle;whiteSpace=wrap;rounded=0;fontSize=14;" vertex="1" parent="1">
                    <mxGeometry x="360" y="790" width="410" height="50" as="geometry"/>
                </mxCell>
                <mxCell id="30" value="" style="rounded=0;whiteSpace=wrap;html=1;fillColor=#CCFFCC;" vertex="1" parent="1">
                    <mxGeometry x="360" y="920" width="40" height="40" as="geometry"/>
                </mxCell>
                <mxCell id="31" value="" style="rounded=0;whiteSpace=wrap;html=1;fillColor=#CCFFCC;" vertex="1" parent="1">
                    <mxGeometry x="400" y="920" width="40" height="40" as="geometry"/>
                </mxCell>
                <mxCell id="32" value="" style="rounded=0;whiteSpace=wrap;html=1;fillColor=#CCFFCC;" vertex="1" parent="1">
                    <mxGeometry x="480" y="920" width="40" height="40" as="geometry"/>
                </mxCell>
                <mxCell id="33" value="" style="rounded=0;whiteSpace=wrap;html=1;fillColor=#CCFFCC;" vertex="1" parent="1">
                    <mxGeometry x="440" y="920" width="40" height="40" as="geometry"/>
                </mxCell>
                <mxCell id="34" value="" style="rounded=0;whiteSpace=wrap;html=1;fillColor=#B266FF;" vertex="1" parent="1">
                    <mxGeometry x="520" y="920" width="40" height="40" as="geometry"/>
                </mxCell>
                <mxCell id="35" value="" style="rounded=0;whiteSpace=wrap;html=1;fillColor=#CCFFFF;" vertex="1" parent="1">
                    <mxGeometry x="560" y="920" width="40" height="40" as="geometry"/>
                </mxCell>
                <mxCell id="36" value="" style="rounded=0;whiteSpace=wrap;html=1;fillColor=#CCFFFF;" vertex="1" parent="1">
                    <mxGeometry x="600" y="920" width="40" height="40" as="geometry"/>
                </mxCell>
                <mxCell id="37" value="" style="rounded=0;whiteSpace=wrap;html=1;fillColor=#CCFFFF;" vertex="1" parent="1">
                    <mxGeometry x="680" y="920" width="40" height="40" as="geometry"/>
                </mxCell>
                <mxCell id="38" value="" style="rounded=0;whiteSpace=wrap;html=1;fillColor=#CCFFFF;" vertex="1" parent="1">
                    <mxGeometry x="640" y="920" width="40" height="40" as="geometry"/>
                </mxCell>
                <mxCell id="39" value="" style="rounded=0;whiteSpace=wrap;html=1;fillColor=#CCFFFF;" vertex="1" parent="1">
                    <mxGeometry x="720" y="920" width="40" height="40" as="geometry"/>
                </mxCell>
                <mxCell id="40" value="" style="rounded=0;whiteSpace=wrap;html=1;fillColor=#CCFFFF;" vertex="1" parent="1">
                    <mxGeometry x="760" y="920" width="40" height="40" as="geometry"/>
                </mxCell>
                <mxCell id="41" value="&lt;b&gt;抽象化 pos 两侧&lt;/b&gt;" style="text;html=1;align=left;verticalAlign=middle;whiteSpace=wrap;rounded=0;" vertex="1" parent="1">
                    <mxGeometry x="240" y="920" width="90" height="40" as="geometry"/>
                </mxCell>
                <mxCell id="43" value="" style="shape=curlyBracket;whiteSpace=wrap;html=1;rounded=1;labelPosition=left;verticalLabelPosition=middle;align=right;verticalAlign=middle;rotation=90;" vertex="1" parent="1">
                    <mxGeometry x="430" y="825" width="20" height="160" as="geometry"/>
                </mxCell>
                <mxCell id="44" value="" style="shape=curlyBracket;whiteSpace=wrap;html=1;rounded=1;labelPosition=left;verticalLabelPosition=middle;align=right;verticalAlign=middle;rotation=90;" vertex="1" parent="1">
                    <mxGeometry x="669.5" y="787.5" width="20" height="240" as="geometry"/>
                </mxCell>
                <mxCell id="45" value="小于枢轴" style="text;html=1;align=center;verticalAlign=middle;whiteSpace=wrap;rounded=0;" vertex="1" parent="1">
                    <mxGeometry x="410" y="870" width="60" height="30" as="geometry"/>
                </mxCell>
                <mxCell id="46" value="大于枢轴" style="text;html=1;align=center;verticalAlign=middle;whiteSpace=wrap;rounded=0;" vertex="1" parent="1">
                    <mxGeometry x="650" y="870" width="60" height="30" as="geometry"/>
                </mxCell>
                <mxCell id="47" value="枢轴" style="text;html=1;align=center;verticalAlign=middle;whiteSpace=wrap;rounded=0;" vertex="1" parent="1">
                    <mxGeometry x="525" y="890" width="30" height="30" as="geometry"/>
                </mxCell>
                <mxCell id="48" value="" style="rounded=0;whiteSpace=wrap;html=1;fillColor=none;strokeColor=#000000;dashed=1;" vertex="1" parent="1">
                    <mxGeometry x="360" y="860" width="160" height="140" as="geometry"/>
                </mxCell>
                <mxCell id="49" value="" style="rounded=0;whiteSpace=wrap;html=1;fillColor=none;strokeColor=#000000;dashed=1;" vertex="1" parent="1">
                    <mxGeometry x="560" y="860" width="240" height="140" as="geometry"/>
                </mxCell>
                <mxCell id="50" value="左侧区间" style="text;html=1;align=center;verticalAlign=middle;whiteSpace=wrap;rounded=0;" vertex="1" parent="1">
                    <mxGeometry x="410" y="1000" width="60" height="30" as="geometry"/>
                </mxCell>
                <mxCell id="51" value="右侧区间" style="text;html=1;align=center;verticalAlign=middle;whiteSpace=wrap;rounded=0;" vertex="1" parent="1">
                    <mxGeometry x="650" y="1000" width="60" height="30" as="geometry"/>
                </mxCell>
                <mxCell id="53" value="pos" style="text;html=1;align=center;verticalAlign=middle;whiteSpace=wrap;rounded=0;fontColor=#B266FF;" vertex="1" parent="1">
                    <mxGeometry x="520" y="960" width="40" height="20" as="geometry"/>
                </mxCell>
                <mxCell id="54" value="pos - 1" style="text;html=1;align=center;verticalAlign=middle;whiteSpace=wrap;rounded=0;" vertex="1" parent="1">
                    <mxGeometry x="480" y="960" width="40" height="40" as="geometry"/>
                </mxCell>
                <mxCell id="55" value="pos + 1" style="text;html=1;align=center;verticalAlign=middle;whiteSpace=wrap;rounded=0;" vertex="1" parent="1">
                    <mxGeometry x="560" y="960" width="50" height="40" as="geometry"/>
                </mxCell>
                <mxCell id="56" value="right" style="text;html=1;align=center;verticalAlign=middle;whiteSpace=wrap;rounded=0;" vertex="1" parent="1">
                    <mxGeometry x="760" y="960" width="40" height="40" as="geometry"/>
                </mxCell>
                <mxCell id="57" value="left" style="text;html=1;align=center;verticalAlign=middle;whiteSpace=wrap;rounded=0;" vertex="1" parent="1">
                    <mxGeometry x="360" y="960" width="40" height="40" as="geometry"/>
                </mxCell>
            </root>
        </mxGraphModel>
    </diagram>
</mxfile>